<?xml version="1.0" standalone="no"?>
<!DOCTYPE svg PUBLIC "-//W3C//DTD SVG 20010904//EN"
 "http://www.w3.org/TR/2001/REC-SVG-20010904/DTD/svg10.dtd">
<svg version="1.0" xmlns="http://www.w3.org/2000/svg"
 width="700.000000pt" height="700.000000pt" viewBox="0 0 700.000000 700.000000"
 preserveAspectRatio="xMidYMid meet">
<metadata>
Created by potrace 1.11, written by Peter Selinger 2001-2013
</metadata>
<g transform="translate(0.000000,700.000000) scale(0.100000,-0.100000)"
fill="#000000" stroke="none">
<path d="M3415 6877 c-11 -8 -45 -27 -75 -44 -117 -64 -428 -242 -494 -281
-37 -23 -70 -42 -71 -42 -2 0 -72 -40 -156 -90 -83 -49 -152 -90 -154 -90 -1
0 -60 -35 -131 -78 -71 -43 -149 -90 -174 -104 -25 -14 -247 -146 -495 -293
-247 -147 -463 -276 -480 -285 -16 -10 -52 -31 -80 -48 -27 -17 -93 -56 -145
-86 -338 -200 -444 -265 -446 -278 -1 -8 -5 -217 -9 -464 -4 -247 -8 -534 -10
-639 -3 -167 -10 -679 -20 -1485 -6 -478 -7 -841 -4 -844 7 -6 191 -106 195
-106 2 0 48 -24 101 -54 54 -29 146 -78 204 -109 93 -48 266 -141 454 -242 33
-18 101 -54 150 -80 50 -26 122 -64 160 -85 39 -21 106 -57 150 -80 44 -23
136 -73 205 -110 69 -37 159 -85 200 -107 41 -22 163 -87 270 -145 107 -58
240 -129 295 -158 55 -29 114 -60 130 -70 17 -10 75 -41 130 -70 55 -29 114
-60 130 -70 17 -9 80 -43 140 -75 61 -32 114 -61 119 -66 7 -6 149 61 191 91
6 4 55 31 110 61 55 29 118 63 140 75 22 13 67 37 100 55 33 17 98 53 145 79
47 26 114 63 150 82 36 20 205 112 375 205 171 93 353 192 405 220 89 48 112
60 228 123 26 14 97 52 157 84 61 32 191 102 290 156 172 93 262 141 440 236
44 24 105 56 135 73 30 17 79 43 109 58 l53 27 -6 441 c-4 242 -9 530 -11 640
-3 187 -13 928 -20 1505 -2 140 -4 391 -5 557 l-1 301 -72 44 c-40 24 -80 46
-90 50 -10 4 -38 21 -62 38 -24 16 -46 30 -49 30 -2 0 -82 46 -178 101 -95 56
-189 111 -208 122 -19 11 -270 156 -557 323 -288 167 -525 304 -529 304 -3 0
-18 8 -32 19 -15 10 -52 32 -82 49 -30 16 -106 60 -169 96 -62 36 -115 66
-117 66 -2 0 -33 18 -69 40 -36 22 -67 40 -69 40 -2 0 -48 25 -102 56 -55 31
-128 72 -164 91 -36 20 -69 39 -75 43 -5 4 -41 24 -80 45 -338 180 -332 177
-370 152z m150 -911 c213 -11 535 -70 725 -132 567 -186 1294 -824 1529 -1342
18 -40 34 -78 35 -85 1 -7 5 -17 8 -23 17 -27 91 -338 114 -479 8 -49 17 -102
19 -116 7 -41 13 -88 20 -174 4 -44 9 -83 11 -87 6 -10 5 -367 -1 -413 -3 -22
-7 -51 -10 -65 -3 -14 -8 -43 -11 -64 -8 -53 -32 -88 -58 -84 -31 5 -60 67
-100 218 -42 154 -62 211 -122 330 -142 286 -470 667 -744 865 -30 22 -57 42
-60 45 -10 11 -136 87 -208 124 -107 55 -319 124 -467 150 -102 19 -208 35
-260 40 -33 4 -78 9 -100 12 -54 8 -489 8 -545 0 -25 -3 -72 -8 -105 -11 -63
-6 -103 -11 -145 -20 -14 -3 -65 -12 -115 -20 -49 -9 -149 -28 -221 -44 l-131
-27 99 295 c55 163 101 303 103 311 2 8 12 42 24 75 40 118 92 304 117 420 5
24 11 69 20 145 8 66 28 104 63 121 49 23 142 37 259 38 64 1 118 4 120 5 2 2
11 2 20 0 9 -1 62 -5 117 -8z m-1589 -311 c-9 -47 -80 -221 -156 -380 -174
-366 -242 -620 -244 -910 -1 -71 11 -235 18 -256 3 -8 7 -30 10 -49 15 -96 59
-245 111 -370 82 -197 240 -456 412 -675 18 -23 168 -200 173 -205 3 -3 48
-54 100 -115 52 -60 106 -123 120 -139 14 -16 34 -37 44 -47 11 -11 17 -22 13
-25 -5 -5 -105 -34 -237 -68 -81 -21 -255 -69 -295 -81 -66 -20 -558 -139
-625 -151 -14 -3 -43 -9 -65 -14 -83 -19 -109 -14 -152 33 -131 142 -294 616
-347 1012 -14 104 -15 388 -2 455 3 14 8 46 10 72 9 76 17 119 32 186 7 34 16
74 19 90 27 152 183 583 266 735 5 10 25 47 44 82 104 191 241 387 352 500
125 128 381 355 402 355 2 0 0 -16 -3 -35z m3223 -3024 l503 -500 -45 -58
c-24 -32 -60 -76 -78 -99 -19 -22 -50 -60 -69 -84 -302 -379 -513 -567 -814
-726 -177 -93 -457 -180 -641 -199 -33 -4 -71 -8 -85 -11 -33 -5 -379 -6 -388
0 -4 2 -32 7 -62 10 -101 12 -155 18 -175 22 -58 11 -173 34 -195 39 -14 3
-37 7 -52 10 -53 10 -294 76 -345 95 -45 17 -163 68 -380 165 -66 30 -79 44
-40 46 12 0 30 2 40 4 10 2 46 6 80 9 35 4 72 8 82 10 11 2 52 7 90 10 39 4
77 9 85 11 8 2 44 6 79 10 62 5 80 8 169 20 20 3 55 8 77 11 75 9 230 35 265
44 19 5 46 11 60 14 130 23 313 81 390 124 173 96 398 333 558 588 143 229
211 400 318 806 32 122 41 145 54 138 8 -5 242 -234 519 -509z"/>
</g>
</svg>
